Coordinates	
version=1	
nRows=252	
nColumns=2	
inDegrees=yes	
endheader	
time	elbow_flexion
1.259646621	4.738260779
1.262111334	4.691057021
1.264576048	4.65438649
1.267040761	4.628374107
1.269234391	4.614248739
1.271428022	4.608644603
1.274071652	4.613191304
1.276715282	4.630004909
1.279033306	4.654721005
1.28135133	4.68860499
1.283669354	4.73147425
1.286475098	4.795069265
1.288741035	4.855498811
1.291006971	4.923746319
1.293272908	4.999520708
1.296178234	5.107186966
1.298595018	5.205280906
1.301011802	5.310671407
1.303428586	5.422919225
1.30584537	5.541574651
1.308262154	5.66618144
1.310678938	5.796280636
1.313095723	5.931414842
1.315512507	6.071130892
1.317929291	6.214982132
1.320346075	6.362531019
1.322762859	6.513351327
1.325179643	6.667029993
1.327596427	6.823168646
1.330013211	6.981384812
1.332429995	7.141312836
1.334846779	7.302604519
1.337263563	7.464929507
1.339680347	7.627975439
1.342097131	7.791447878
1.34503051	7.990039085
1.347194406	8.136407171
1.349358302	8.282472278
1.352118471	8.468091581
1.354878641	8.652643749
1.357045587	8.796596444
1.359212533	8.939586152
1.362001982	9.122043298
1.36479143	9.302472546
1.366867042	9.435285301
1.368942653	9.566775465
1.37183306	9.747538625
1.374424274	9.907133016
1.377015488	10.06427667
1.379308249	10.20118742
1.381601009	10.33602118
1.383893769	10.46871257
1.386699383	10.62808244
1.389086668	10.76101686
1.391473953	10.8914336
1.393861238	11.01928048
1.396248522	11.14450945
1.398635807	11.26707627
1.401023092	11.38694016
1.403410377	11.50406488
1.405797661	11.61841847
1.40875384	11.75613873
1.41096022	11.85609905
1.4131666	11.9536198
1.415959241	12.0735273
1.418422999	12.1760187
1.420886757	12.27539973
1.423350515	12.3716516
1.425814274	12.46475711
1.428278032	12.5547007
1.43074179	12.64146821
1.433205548	12.72504698
1.435669307	12.80542562
1.437868877	12.87447329
1.440068448	12.94095599
1.442746354	13.01842625
1.445424259	13.09207803
1.44766977	13.15088896
1.449915282	13.20700685
1.452160793	13.26042918
1.455056262	13.3253333
1.457427165	13.37513836
1.459798068	13.42193568
1.46216897	13.46572626
1.464539873	13.50651201
1.467388836	13.55155091
1.469645798	13.58415795
1.471902759	13.61405266
1.47415972	13.64123977
1.477121099	13.67281438
1.479469224	13.69455293
1.481817349	13.71338345
1.484165474	13.72931469
1.486513599	13.74235617
1.489478072	13.75470985
1.491760715	13.76110882
1.494043359	13.76481109
1.496326003	13.7658284
1.499113089	13.76344805
1.501570637	13.75806266
1.504028184	13.74961535
1.506485731	13.73812427
1.508943278	13.72360846
1.511400825	13.70608778
1.513858372	13.68558289
1.516315919	13.66211531
1.518773466	13.63570732
1.521231013	13.60638201
1.523424873	13.57775806
1.525618732	13.54684575
1.528266646	13.50651345
1.53091456	13.46290624
1.533216713	13.42235782
1.535518867	13.37938181
1.53782102	13.33400138
1.540604582	13.27595404
1.542992434	13.22341779
1.545380285	13.16837958
1.547768137	13.11086786
1.550155989	13.0509117
1.55254384	12.98854047
1.554931692	12.92378428
1.557319544	12.85667385
1.559707395	12.78724053
1.562642201	12.69876818
1.564985035	12.62569789
1.567327869	12.55049228
1.569670703	12.47318344
1.572013537	12.39380409
1.574356371	12.31238759
1.577299132	12.20728887
1.579639173	12.12150616
1.581979214	12.03380442
1.584319254	11.94422006
1.586659295	11.85279038
1.589493074	11.73965382
1.591810423	11.64521443
1.594127771	11.54908889
1.596445119	11.4513177
1.598762468	11.35194256
1.601704778	11.22352429
1.604064646	11.11877311
1.606424513	11.01251656
1.60878438	10.90480828
1.611144247	10.79570386
1.613504114	10.68526107
1.616491193	10.54363938
1.618765478	10.43451762
1.621039763	10.32434156
1.623314048	10.21317278
1.626206196	10.07046985
1.628551411	9.953746202
1.630896626	9.836204001
1.63324184	9.717924609
1.635587055	9.598993213
1.638464034	9.45233573
1.640736145	9.336027455
1.643008256	9.219389069
1.645280368	9.102514618
1.648213116	8.951468776
1.650570881	8.830020448
1.652928647	8.708688798
1.655286413	8.587600587
1.657644178	8.466888028
1.660001944	8.346688895
1.662895829	8.20007138
1.665201238	8.084161066
1.667506647	7.96919946
1.669812055	7.855336864
1.672625346	7.718104959
1.675010519	7.603435473
1.677395693	7.490499783
1.679780866	7.379484791
1.68216604	7.270581308
1.684551213	7.163983567
1.686936386	7.059888565
1.68932156	6.958495379
1.691706733	6.86000438
1.694663888	6.742225217
1.697003372	6.652677853
1.699342856	6.566541743
1.70168234	6.484001549
1.704021824	6.405238359
1.706361308	6.330428665
1.709339919	6.241171714
1.711674099	6.176116564
1.714008279	6.115526496
1.716342458	6.059545237
1.718676638	6.008306337
1.721010818	5.961932204
1.723939077	5.91080279
1.726323387	5.875085421
1.728707698	5.844769328
1.731092009	5.819923681
1.73347632	5.800601093
1.735860631	5.786837138
1.738244942	5.778649978
1.740629253	5.776040174
1.743496898	5.780263762
1.745835411	5.789618242
1.748173925	5.804227049
1.750512438	5.824022329
1.752850951	5.848921082
1.755693568	5.88591754
1.758009828	5.921392477
1.760326089	5.961520655
1.76264235	6.006167181
1.765457104	6.066293326
1.767808504	6.121269674
1.770159903	6.180384185
1.772511303	6.243456079
1.774862703	6.310297952
1.777214102	6.380716906
1.780188117	6.474597092
1.782414325	6.548166105
1.784640533	6.624364387
1.787423046	6.723036687
1.789853891	6.812112981
1.792284736	6.90363448
1.794715581	6.997378461
1.797146426	7.093125003
1.799577271	7.190657761
1.802008116	7.289764646
1.804438961	7.390238419
1.806869806	7.491877202
1.809300651	7.594484912
1.811731497	7.697871612
1.814162342	7.801853808
1.816593187	7.906254664
1.819024032	8.010904173
1.821454877	8.115639258
1.823885722	8.220303831
1.826316567	8.324748796
1.828747412	8.428832011
1.831178257	8.532418209
1.833609102	8.635378887
1.836039948	8.737592161
1.838470793	8.8389426
1.840901638	8.93932104
1.843332483	9.038624365
1.845763328	9.136755303
1.848194173	9.23362225
1.850625018	9.329138989
1.853055863	9.423224473
1.855486708	9.5158026
1.857917553	9.606801988
1.860348399	9.696155747
1.862779244	9.783801258
1.865210089	9.86967996
1.867640934	9.953737144
1.870071779	10.03592176
1.872502624	10.1161862
